# xmcd
#
# Track frame offsets: 
#        150
#        19725
#        41842
#        66687
#        86597
#        112697
#        136755
#        163085
#        188942
#
# Disc length: 2817 seconds
#
# Revision: 15
# Processed by: cddbd v1.5.2PL0 Copyright (c) Steve Scherf et al.
# Submitted via: ExactAudioCopy v1.0b3
#
DISCID=770aff09
DTITLE=Sotte Bosse - Essence of life
DYEAR=2006
DGENRE=Easy Listening
TTITLE0=島唄
TTITLE1=接吻 KISS
TTITLE2=EVERYTHING
TTITLE3=真夏の果実
TTITLE4=春の歌
TTITLE5=未来予想図II
TTITLE6=one more time, one more chance
TTITLE7=世界に一つだけの花
TTITLE8=ガラス越しに消えた夏
EXTD=YEAR: 2006
EXTT0=
EXTT1=
EXTT2=
EXTT3=
EXTT4=
EXTT5=
EXTT6=
EXTT7=
EXTT8=
PLAYORDER=
